#N canvas 595 278 906 406 10;
#X floatatom 715 191 7 0 999999 0 - - -;
#X floatatom 649 305 5 0 0 0 - - -;
#X floatatom 716 305 5 0 0 0 - - -;
#X text 648 321 MINUTES;
#X text 714 322 SECONDS;
#X floatatom 781 305 5 0 0 0 - - -;
#X text 780 334 FRAMES;
#X text 780 322 REMAINDER;
#X floatatom 562 191 7 0 999999 0 - - -;
#X floatatom 536 304 7 0 0 0 - - -;
#X text 90 100 SECONDS;
#X text 153 100 FRAMES;
#X text 153 88 REMAINDER;
#X floatatom 92 119 5 0 59 0 - - -;
#X floatatom 154 119 5 0 29 0 - - -;
#X floatatom 29 119 5 0 999 0 - - -;
#X text 28 101 MINUTES;
#N canvas 1179 447 394 300 Convert_MS2F 0;
#X obj 77 164 * 30;
#X obj 126 194 +;
#X obj 46 101 * 60;
#X obj 77 134 +;
#X obj 46 33 inlet;
#X obj 92 33 inlet;
#X obj 141 34 inlet;
#X obj 126 227 outlet;
#X obj 67 73 bng 15 250 50 0 empty empty empty 17 7 0 10 -262144 -1
-1;
#X text 208 115 Input is M/S/F;
#X text 208 134 Output is frames;
#X text 36 16 MINUTES;
#X text 87 16 SECONDS;
#X text 140 16 REMAINDER FRAMES;
#X text 114 245 TOTAL FRAMES;
#X text 198 96 ---------------------;
#X text 199 150 ---------------------;
#X connect 0 0 1 0;
#X connect 1 0 7 0;
#X connect 2 0 3 0;
#X connect 3 0 0 0;
#X connect 4 0 2 0;
#X connect 5 0 3 1;
#X connect 5 0 8 0;
#X connect 6 0 1 1;
#X connect 6 0 8 0;
#X connect 8 0 2 0;
#X restore 29 165 pd Convert_MS2F;
#X text 324 100 SECONDS;
#X text 387 100 FRAMES;
#X text 387 88 REMAINDER;
#X floatatom 326 119 5 0 59 0 - - -;
#X floatatom 388 119 5 0 29 0 - - -;
#X floatatom 263 119 5 0 999 0 - - -;
#X text 262 101 MINUTES;
#N canvas 1172 453 394 300 Convert_MS2F 0;
#X obj 77 164 * 30;
#X obj 126 194 +;
#X obj 46 101 * 60;
#X obj 77 134 +;
#X obj 46 33 inlet;
#X obj 92 33 inlet;
#X obj 141 34 inlet;
#X obj 126 227 outlet;
#X obj 67 73 bng 15 250 50 0 empty empty empty 17 7 0 10 -262144 -1
-1;
#X text 36 15 MINUTES;
#X text 87 15 SECONDS;
#X text 140 15 REMAINDER FRAMES;
#X text 112 244 TOTAL FRAMES;
#X text 218 125 Input is M/S/F;
#X text 218 144 Output is frames;
#X text 208 106 ---------------------;
#X text 209 160 ---------------------;
#X connect 0 0 1 0;
#X connect 1 0 7 0;
#X connect 2 0 3 0;
#X connect 3 0 0 0;
#X connect 4 0 2 0;
#X connect 5 0 3 1;
#X connect 5 0 8 0;
#X connect 6 0 1 1;
#X connect 6 0 8 0;
#X connect 8 0 2 0;
#X restore 263 165 pd Convert_MS2F;
#X floatatom 60 304 7 0 0 0 - - -;
#X floatatom 168 304 5 0 0 0 - - -;
#X floatatom 235 304 5 0 0 0 - - -;
#X text 167 320 MINUTES;
#X text 233 321 SECONDS;
#X floatatom 300 304 5 0 0 0 - - -;
#X text 299 333 FRAMES;
#X text 299 321 REMAINDER;
#X text 59 332 FRAMES;
#X text 59 320 TOTAL;
#X text 535 333 FRAMES;
#X text 535 321 TOTAL;
#X obj 715 76 bng 30 250 50 0 empty empty empty 17 7 0 10 -228856 -1
-1;
#X obj 838 76 bng 30 250 50 0 empty empty empty 17 7 0 10 -228856 -1
-1;
#X text 846 108 RESET;
#X obj 776 76 bng 30 250 50 0 empty empty empty 17 7 0 10 -228856 -1
-1;
#X text 722 108 +1000;
#X text 783 108 +10000;
#X obj 507 76 bng 30 250 50 0 empty empty empty 17 7 0 10 -228856 -1
-1;
#X obj 630 76 bng 30 250 50 0 empty empty empty 17 7 0 10 -228856 -1
-1;
#X text 638 108 RESET;
#X obj 568 76 bng 30 250 50 0 empty empty empty 17 7 0 10 -228856 -1
-1;
#X text 514 108 +1000;
#X text 575 108 +10000;
#N canvas 1212 412 328 298 JumpThousandFrames 0;
#X obj 45 130 f;
#X obj 81 130 + 1000;
#X obj 45 40 inlet;
#X obj 123 248 outlet;
#X msg 241 68 0;
#X obj 138 40 inlet;
#X obj 241 40 inlet;
#X obj 175 130 + 10000;
#X obj 138 130 f;
#X obj 123 221 f;
#X obj 123 191 +;
#X obj 123 164 bng 15 250 50 0 empty empty empty 17 7 0 10 -262144
-1 -1;
#X obj 75 80 loadbang;
#X text 108 267 TOTAL FRAMES;
#X text 37 20 ADD 1000;
#X text 128 20 ADD 10000;
#X text 240 20 RESET;
#X connect 0 0 1 0;
#X connect 0 0 10 0;
#X connect 1 0 0 1;
#X connect 2 0 0 0;
#X connect 4 0 0 0;
#X connect 4 0 8 0;
#X connect 4 0 9 0;
#X connect 5 0 8 0;
#X connect 6 0 4 0;
#X connect 7 0 8 1;
#X connect 8 0 7 0;
#X connect 8 0 10 1;
#X connect 8 0 11 0;
#X connect 9 0 3 0;
#X connect 10 0 9 0;
#X connect 11 0 10 0;
#X connect 12 0 0 0;
#X connect 12 0 8 0;
#X restore 507 131 pd JumpThousandFrames;
#N canvas 1244 424 313 291 JumpThousandFrames 0;
#X obj 40 124 f;
#X obj 76 124 + 1000;
#X obj 40 34 inlet;
#X obj 118 242 outlet;
#X msg 236 62 0;
#X obj 133 34 inlet;
#X obj 236 34 inlet;
#X obj 170 124 + 10000;
#X obj 133 124 f;
#X obj 118 215 f;
#X obj 118 185 +;
#X obj 118 158 bng 15 250 50 0 empty empty empty 17 7 0 10 -262144
-1 -1;
#X obj 70 74 loadbang;
#X text 31 15 ADD 1000;
#X text 122 15 ADD 10000;
#X text 234 15 RESET;
#X text 104 260 TOTAL FRAMES;
#X connect 0 0 1 0;
#X connect 0 0 10 0;
#X connect 1 0 0 1;
#X connect 2 0 0 0;
#X connect 4 0 0 0;
#X connect 4 0 8 0;
#X connect 4 0 9 0;
#X connect 5 0 8 0;
#X connect 6 0 4 0;
#X connect 7 0 8 1;
#X connect 8 0 7 0;
#X connect 8 0 10 1;
#X connect 8 0 11 0;
#X connect 9 0 3 0;
#X connect 10 0 9 0;
#X connect 11 0 10 0;
#X connect 12 0 0 0;
#X connect 12 0 8 0;
#X restore 715 131 pd JumpThousandFrames;
#N canvas 1177 388 392 387 SubtractAndConvert_F2MS 0;
#X floatatom 108 216 5 0 0 0 - - -;
#X floatatom 210 217 5 0 0 0 - - -;
#X text 252 226 FRAMES;
#X text 252 214 REMAINDER;
#X obj 108 152 div 30;
#X obj 175 153 mod 30;
#X obj 108 283 div 60;
#X obj 159 283 mod 60;
#X text 144 213 TOTAL;
#X text 144 225 SECONDS;
#X obj 191 30 inlet;
#X obj 108 316 outlet;
#X obj 159 316 outlet;
#X obj 210 316 outlet;
#X obj 146 30 inlet;
#X obj 122 57 bng 15 250 50 0 empty empty empty 17 7 0 10 -262144 -1
-1;
#X obj 131 93 -;
#X obj 36 316 outlet;
#X floatatom 36 152 5 0 0 0 - - -;
#X text 43 182 FRAMES;
#X text 43 170 TOTAL;
#X text 105 335 MINUTES;
#X text 156 335 SECONDS;
#X text 209 347 FRAMES;
#X text 209 335 REMAINDER;
#X text 39 346 FRAMES;
#X text 39 335 TOTAL;
#X text 145 0 START;
#X text 145 12 FRAME;
#X text 193 12 FRAME;
#X text 193 0 END;
#X text 246 91 Input is frames;
#X text 246 110 Output is M/S/F;
#X text 231 73 ---------------------;
#X text 231 125 ---------------------;
#X connect 0 0 6 0;
#X connect 0 0 7 0;
#X connect 1 0 13 0;
#X connect 4 0 0 0;
#X connect 5 0 1 0;
#X connect 6 0 11 0;
#X connect 7 0 12 0;
#X connect 10 0 16 0;
#X connect 14 0 16 1;
#X connect 14 0 15 0;
#X connect 15 0 16 0;
#X connect 16 0 4 0;
#X connect 16 0 5 0;
#X connect 16 0 18 0;
#X connect 18 0 17 0;
#X restore 562 251 pd SubtractAndConvert_F2MS;
#N canvas 1163 451 400 379 SubtractAndConvert_F2MS 0;
#X floatatom 108 216 5 0 0 0 - - -;
#X floatatom 210 217 5 0 0 0 - - -;
#X text 252 226 FRAMES;
#X text 252 214 REMAINDER;
#X obj 108 152 div 30;
#X obj 175 153 mod 30;
#X obj 108 283 div 60;
#X obj 159 283 mod 60;
#X text 144 213 TOTAL;
#X text 144 225 SECONDS;
#X obj 189 31 inlet;
#X obj 108 316 outlet;
#X obj 159 316 outlet;
#X obj 210 316 outlet;
#X obj 146 31 inlet;
#X obj 118 58 bng 15 250 50 0 empty empty empty 17 7 0 10 -262144 -1
-1;
#X obj 131 93 -;
#X obj 36 316 outlet;
#X floatatom 36 152 5 0 0 0 - - -;
#X text 43 182 FRAMES;
#X text 43 170 TOTAL;
#X text 248 89 Input is frames;
#X text 248 108 Output is M/S/F;
#X text 105 335 MINUTES;
#X text 156 335 SECONDS;
#X text 209 347 FRAMES;
#X text 209 335 REMAINDER;
#X text 39 347 FRAMES;
#X text 39 335 TOTAL;
#X text 144 1 START;
#X text 144 13 FRAME;
#X text 192 13 FRAME;
#X text 192 1 END;
#X text 233 71 ---------------------;
#X text 233 123 ---------------------;
#X connect 0 0 6 0;
#X connect 0 0 7 0;
#X connect 1 0 13 0;
#X connect 4 0 0 0;
#X connect 5 0 1 0;
#X connect 6 0 11 0;
#X connect 7 0 12 0;
#X connect 10 0 16 0;
#X connect 14 0 16 1;
#X connect 14 0 15 0;
#X connect 15 0 16 0;
#X connect 16 0 4 0;
#X connect 16 0 5 0;
#X connect 16 0 18 0;
#X connect 18 0 17 0;
#X restore 97 247 pd SubtractAndConvert_F2MS;
#X text 25 69 *Start Time*;
#X text 258 69 *End Time*;
#X text 724 171 *End Frame*;
#X text 564 171 *Start Frame*;
#X text 124 360 === TOTAL DURATION ===;
#X text 611 358 === TOTAL DURATION ===;
#X text 445 35 30 FPS;
#X text 413 385 thefulldomeblog.com;
#X text 462 62 |;
#X text 462 77 |;
#X text 462 93 |;
#X text 462 108 |;
#X text 462 124 |;
#X text 462 139 |;
#X text 462 155 |;
#X text 462 170 |;
#X text 462 187 |;
#X text 462 202 |;
#X text 462 218 |;
#X text 462 233 |;
#X text 462 249 |;
#X text 462 281 |;
#X text 462 297 |;
#X text 462 312 |;
#X text 462 328 |;
#X text 462 343 |;
#X text 462 264 |;
#X text 118 21 Calculate Duration: Input as Timecode;
#X text 572 21 Calculate Duration: Input as Frames;
#X text 561 34 ---------------------------------------;
#X text 103 34 ------------------------------------------;
#X connect 0 0 52 1;
#X connect 8 0 52 0;
#X connect 13 0 17 1;
#X connect 14 0 17 2;
#X connect 15 0 17 0;
#X connect 17 0 53 0;
#X connect 21 0 25 1;
#X connect 22 0 25 2;
#X connect 23 0 25 0;
#X connect 25 0 53 1;
#X connect 38 0 51 0;
#X connect 39 0 51 2;
#X connect 41 0 51 1;
#X connect 44 0 50 0;
#X connect 45 0 50 2;
#X connect 47 0 50 1;
#X connect 50 0 8 0;
#X connect 51 0 0 0;
#X connect 52 0 9 0;
#X connect 52 1 1 0;
#X connect 52 2 2 0;
#X connect 52 3 5 0;
#X connect 53 0 26 0;
#X connect 53 1 27 0;
#X connect 53 2 28 0;
#X connect 53 3 31 0;
